<svg id="SvgjsSvg1001" width="288" height="288" xmlns="http://www.w3.org/2000/svg" version="1.1" xmlns:xlink="http://www.w3.org/1999/xlink" xmlns:svgjs="http://svgjs.com/svgjs"><defs id="SvgjsDefs1002"></defs><g id="SvgjsG1008"><svg xmlns="http://www.w3.org/2000/svg" version="1.0" viewBox="0 0 1499 166" width="288" height="288"><path d="M0 3.8v3.7L12.2 14c6.6 3.6 13.1 6.8 14.2 7.1 1.2.4 8.1 3.6 15.3 7.3C49 32 55.4 35 55.9 35s7.1 2.9 14.6 6.5S84.6 48 85.2 48c1 0 8.5 3.3 25.6 11.1 3.4 1.6 6.9 2.9 7.7 2.9 1.3 0 14.1 5.1 24.1 9.5 1.6.8 8.8 3.4 16 5.9 7.1 2.4 17.9 6.2 23.9 8.4 19.2 6.9 47.8 16.4 52.5 17.4 2.5.5 10.1 2.7 17 4.8 25.4 7.8 30.5 9.2 34.9 10 2.5.4 14.5 3.3 26.6 6.5 12.1 3.2 24.7 6.1 28 6.6 3.3.4 11 1.9 17 3.4 16 3.7 44.1 9.3 50.5 10 3 .4 13.6 2 23.5 3.6 39.6 6.4 67.3 9.7 99 11.9 8.8.6 24.8 1.8 35.5 2.5 38.3 2.8 104.1 3.8 215.5 3.2 105.1-.6 122.3-1 164-4.3 11-.8 26.8-1.9 35-2.4 16.4-1 48.3-5.1 83.5-10.6 36.5-5.7 45.4-7.3 67-12.1 11.3-2.5 23-4.9 26-5.3 5.5-.8 27.1-6 43.2-10.6 4.8-1.3 9.6-2.4 10.6-2.4 1.1 0 10.9-2.7 21.8-6.1 11-3.3 22.5-6.7 25.7-7.4 6.3-1.4 39.2-12.2 57.2-18.7 6.1-2.2 16.8-6 23.9-8.4 7.1-2.5 14.3-5.1 16-5.8 9.9-4.5 22.8-9.6 24.1-9.6.8 0 4.5-1.4 8.2-3.1 17.2-7.9 24.1-10.9 25.1-10.9.6 0 7.2-2.9 14.7-6.5 7.5-3.6 14.1-6.5 14.6-6.5s6.9-3 14.2-6.6c7.2-3.7 14.1-7 15.3-7.3 1.1-.3 7.6-3.5 14.2-7.1l12.2-6.5V0H0v3.8z" fill="#5358c7" class="color000 svgShape"></path></svg></g></svg>