<?xml version="1.0" standalone="no"?>
<!DOCTYPE svg PUBLIC "-//W3C//DTD SVG 20010904//EN"
 "http://www.w3.org/TR/2001/REC-SVG-20010904/DTD/svg10.dtd">
<svg version="1.0" xmlns="http://www.w3.org/2000/svg"
 width="1499.000000pt" height="166.000000pt" viewBox="0 0 1499.000000 166.000000"
 preserveAspectRatio="xMidYMid meet">

<g transform="translate(0.000000,166.000000) scale(0.100000,-0.100000)"
fill="#000000" stroke="none">
<path d="M0 1622 l0 -37 122 -65 c66 -36 131 -68 142 -71 12 -4 81 -36 153
-73 73 -36 137 -66 142 -66 5 0 71 -29 146 -65 75 -36 141 -65 147 -65 10 0
85 -33 256 -111 34 -16 69 -29 77 -29 13 0 141 -51 241 -95 16 -8 88 -34 160
-59 71 -24 179 -62 239 -84 192 -69 478 -164 525 -174 25 -5 101 -27 170 -48
254 -78 305 -92 349 -100 25 -4 145 -33 266 -65 121 -32 247 -61 280 -66 33
-4 110 -19 170 -34 160 -37 441 -93 505 -100 30 -4 136 -20 235 -36 396 -64
673 -97 990 -119 88 -6 248 -18 355 -25 383 -28 1041 -38 2155 -32 1051 6
1223 10 1640 43 110 8 268 19 350 24 164 10 483 51 835 106 365 57 454 73 670
121 113 25 230 49 260 53 55 8 271 60 432 106 48 13 96 24 106 24 11 0 109 27
218 61 110 33 225 67 257 74 63 14 392 122 572 187 61 22 168 60 239 84 71 25
143 51 160 58 99 45 228 96 241 96 8 0 45 14 82 31 172 79 241 109 251 109 6
0 72 29 147 65 75 36 141 65 146 65 5 0 69 30 142 66 72 37 141 70 153 73 11
3 76 35 142 71 l122 65 0 37 0 38 -7495 0 -7495 0 0 -38z"/>
</g>
</svg>
