<?xml version="1.0" encoding="UTF-8"?>
<svg fill="none" viewBox="0 0 135 42" xmlns="http://www.w3.org/2000/svg">
<rect transform="rotate(180 21.098 36.169)" x="21.098" y="36.169" width="11.39" height="2.9973" rx="1.4986" fill="#fff"/>
<rect transform="rotate(180 19.301 41.165)" x="19.301" y="41.165" width="7.5931" height="2.9973" rx="1.4986" fill="#fff"/>
<ellipse cx="15.805" cy="15.688" rx="13.688" ry="13.688" stroke="#fff" stroke-width="3.1971"/>
<path d="m11.703 22.382c0-0.5517 0.4473-0.9991 0.9991-0.9991h1.3988c0.4414 0 0.7992-0.3578 0.7992-0.7992 0-0.7367 1.9982-0.7367 1.9982 0 0 0.4414 0.3579 0.7992 0.7993 0.7992h1.3987c0.5518 0 0.9991 0.4474 0.9991 0.9991 0 0.5518-0.4473 0.9991-0.9991 0.9991h-6.3942c-0.5518 0-0.9991-0.4473-0.9991-0.9991z" fill="#fff" stroke="#fff" stroke-width=".59946"/>
<rect transform="rotate(90 16.894 14.189)" x="16.894" y="14.189" width="8.3924" height="1.9982" fill="#fff" stroke="#fff" stroke-width=".59946"/>
<path d="m16.894 13.989c0 0.5518-0.4473 0.9991-0.9991 0.9991-0.3083 0-0.5868 0.1711-0.7591 0.4268-0.1215 0.1803-0.24 0.3186-0.24 0.1727 0-0.2998-0.1998-0.5995-0.5994-0.5995h-0.3997c-0.5517 0-0.9991-0.4473-0.9991-0.9991s0.4474-0.9991 0.9991-0.9991h1.9982c0.5518 0 0.9991 0.4473 0.9991 0.9991z" fill="#fff" stroke="#fff" stroke-width=".59946"/>
<circle cx="15.502" cy="9.1934" r="1.7984" fill="#fff"/>
<path d="m43.145 13.323v17.562h-3.5224v-17.562h3.5224zm10.324 3.4218c1.6605 0 3.0024 0.5284 4.0256 1.5851 1.0232 1.04 1.5348 2.4993 1.5348 4.3779v8.1772h-3.5225v-7.6991c0-1.1071-0.2767-1.9541-0.8303-2.5412-0.5535-0.6039-1.3083-0.9058-2.2644-0.9058-0.9729 0-1.7444 0.3019-2.3147 0.9058-0.5536 0.5871-0.8303 1.4341-0.8303 2.5412v7.6991h-3.5225v-13.939h3.5225v1.7361c0.4696-0.6039 1.0651-1.0735 1.7864-1.409 0.738-0.3523 1.5431-0.5284 2.4154-0.5284zm14.42 3.0947h-2.4406v11.046h-3.5727v-11.046h-1.5851v-2.8934h1.5851v-0.7045c0-1.7109 0.4864-2.9689 1.4593-3.774 0.9728-0.8052 2.4405-1.1826 4.403-1.1323v2.969c-0.8554-0.0168-1.4509 0.1258-1.7864 0.4277-0.3354 0.3019-0.5032 0.8471-0.5032 1.6354v0.5787h2.4406v2.8934zm7.5915 11.272c-1.3418 0-2.5495-0.2935-3.6231-0.8806-1.0735-0.6039-1.9205-1.4509-2.5412-2.5412-0.6038-1.0903-0.9057-2.3483-0.9057-3.7741 0-1.4257 0.3103-2.6837 0.9309-3.774 0.6374-1.0903 1.5012-1.929 2.5915-2.5161 1.0903-0.6038 2.3064-0.9057 3.6483-0.9057s2.558 0.3019 3.6482 0.9057c1.0903 0.5871 1.9458 1.4258 2.5664 2.5161 0.6374 1.0903 0.9561 2.3483 0.9561 3.774 0 1.4258-0.3271 2.6838-0.9813 3.7741-0.6374 1.0903-1.5096 1.9373-2.6166 2.5412-1.0903 0.5871-2.3148 0.8806-3.6735 0.8806zm0-3.0696c0.6374 0 1.2329-0.1509 1.7864-0.4529 0.5703-0.3187 1.0232-0.7883 1.3587-1.4089 0.3355-0.6207 0.5032-1.3755 0.5032-2.2645 0-1.3251-0.3522-2.3399-1.0567-3.0444-0.6878-0.7212-1.5348-1.0819-2.5412-1.0819-1.0065 0-1.8535 0.3607-2.5412 1.0819-0.671 0.7045-1.0065 1.7193-1.0065 3.0444s0.3271 2.3483 0.9813 3.0696c0.6709 0.7045 1.5096 1.0567 2.516 1.0567zm26.285-11.297c1.711 0 3.086 0.5284 4.126 1.5851 1.057 1.04 1.585 2.4993 1.585 4.3779v8.1772h-3.522v-7.6991c0-1.0903-0.277-1.9206-0.831-2.4909-0.553-0.5871-1.308-0.8806-2.264-0.8806-0.9561 0-1.7193 0.2935-2.2896 0.8806-0.5535 0.5703-0.8303 1.4006-0.8303 2.4909v7.6991h-3.5224v-7.6991c0-1.0903-0.2768-1.9206-0.8303-2.4909-0.5536-0.5871-1.3084-0.8806-2.2645-0.8806-0.9728 0-1.7444 0.2935-2.3147 0.8806-0.5536 0.5703-0.8303 1.4006-0.8303 2.4909v7.6991h-3.5225v-13.939h3.5225v1.6858c0.4529-0.5871 1.0316-1.0484 1.736-1.3839 0.7213-0.3354 1.5097-0.5032 2.3651-0.5032 1.0903 0 2.0632 0.2349 2.9186 0.7045 0.8555 0.4529 1.518 1.1071 1.9877 1.9625 0.4529-0.8051 1.1071-1.4509 1.9625-1.9373 0.8722-0.4865 1.8112-0.7297 2.8182-0.7297zm7.267 7.1204c0-1.409 0.277-2.6586 0.831-3.7489 0.57-1.0903 1.333-1.9289 2.289-2.516 0.973-0.5871 2.055-0.8806 3.246-0.8806 1.04 0 1.946 0.2096 2.717 0.629 0.789 0.4193 1.418 0.9477 1.887 1.5851v-1.9877h3.548v13.939h-3.548v-2.038c-0.453 0.6541-1.082 1.1993-1.887 1.6354-0.788 0.4193-1.702 0.629-2.742 0.629-1.174 0-2.248-0.3019-3.221-0.9058-0.956-0.6038-1.719-1.4509-2.289-2.5412-0.554-1.107-0.831-2.3734-0.831-3.7992zm10.97 0.0503c0-0.8554-0.167-1.5851-0.503-2.1889-0.335-0.6206-0.788-1.0903-1.359-1.409-0.57-0.3355-1.182-0.5032-1.836-0.5032s-1.258 0.1593-1.812 0.478c-0.553 0.3187-1.006 0.7884-1.358 1.409-0.336 0.6039-0.504 1.3251-0.504 2.1638s0.168 1.5767 0.504 2.2141c0.352 0.6206 0.805 1.0987 1.358 1.4342 0.57 0.3354 1.174 0.5032 1.812 0.5032 0.654 0 1.266-0.1594 1.836-0.4781 0.571-0.3354 1.024-0.8051 1.359-1.409 0.336-0.6206 0.503-1.3586 0.503-2.2141zm10.209-4.076v6.743c0 0.4697 0.109 0.8135 0.327 1.0316 0.235 0.2013 0.62 0.3019 1.157 0.3019h1.636v2.969h-2.214c-2.969 0-4.454-1.4426-4.454-4.3276v-6.7179h-1.66v-2.8934h1.66v-3.447h3.548v3.447h3.12v2.8934h-3.12z" fill="#fff"/>
</svg>
