<svg width="21" height="20" viewBox="0 0 21 20" fill="none" xmlns="http://www.w3.org/2000/svg">
<rect width="20" height="20" transform="translate(0.5)" fill="white"/>
<path fill-rule="evenodd" clip-rule="evenodd" d="M10.4956 4.27985C8.82947 2.332 6.05109 1.80804 3.96355 3.59168C1.87601 5.37532 1.58211 8.35748 3.22147 10.467C4.58448 12.2209 8.70945 15.9201 10.0614 17.1174C10.2126 17.2513 10.2883 17.3183 10.3765 17.3446C10.4535 17.3676 10.5377 17.3676 10.6147 17.3446C10.7029 17.3183 10.7786 17.2513 10.9298 17.1174C12.2817 15.9201 16.4067 12.2209 17.7697 10.467C19.4091 8.35748 19.1511 5.35656 17.0276 3.59168C14.9042 1.8268 12.1617 2.332 10.4956 4.27985Z" fill="#4B4FB3" stroke="#4B4FB3" stroke-width="1.5" stroke-linecap="round" stroke-linejoin="round"/>
</svg>
